<?xml version="1.0" encoding="iso-8859-1"?>
<!-- Uploaded to: SVG Repo, www.svgrepo.com, Generator: SVG Repo Mixer Tools -->
<svg height="800px" width="800px" version="1.1" id="Layer_1" xmlns="http://www.w3.org/2000/svg" xmlns:xlink="http://www.w3.org/1999/xlink" 
	 viewBox="0 0 512 512" xml:space="preserve">
<g transform="translate(0 -1)">
	<polygon style="fill:#C03A2B;" points="158.897,495.344 494.345,495.344 494.345,230.516 158.897,230.516 	"/>
	<polygon style="fill:#FFFFFF;" points="194.207,460.033 459.034,460.033 459.034,265.826 194.207,265.826 	"/>
	<g>
		<path style="fill:#2F3744;" d="M203.034,239.346c-4.873,0-8.828-3.946-8.828-8.828V98.105c0-4.882,3.955-8.828,8.828-8.828
			c4.873,0,8.828,3.946,8.828,8.828v132.414C211.862,235.4,207.907,239.346,203.034,239.346"/>
		<path style="fill:#2F3744;" d="M459.034,239.346c-4.873,0-8.828-3.946-8.828-8.828V98.105c0-4.882,3.955-8.828,8.828-8.828
			s8.828,3.946,8.828,8.828v132.414C467.862,235.4,463.907,239.346,459.034,239.346"/>
		<path style="fill:#2F3744;" d="M26.483,274.656c-4.873,0-8.828-3.946-8.828-8.828c0-97.351,88.029-176.552,185.379-176.552
			c4.873,0,8.828,3.946,8.828,8.828s-3.955,8.828-8.828,8.828c-87.614,0-167.724,71.283-167.724,158.897
			C35.31,270.711,31.356,274.656,26.483,274.656"/>
		<path style="fill:#2F3744;" d="M17.655,301.139L17.655,301.139C7.901,301.139,0,293.239,0,283.484V36.312
			c0-9.754,7.901-17.655,17.655-17.655l0,0c9.754,0,17.655,7.901,17.655,17.655v247.172C35.31,293.239,27.41,301.139,17.655,301.139
			"/>
	</g>
	<path style="fill:#464F5D;" d="M494.345,62.794H35.31v35.31h459.034c9.754,0,17.655-7.901,17.655-17.655
		S504.099,62.794,494.345,62.794"/>
	<g>
		<path style="fill:#C03A2B;" d="M291.31,424.725c-4.873,0-8.828-3.946-8.828-8.828V309.967c0-4.882,3.955-8.828,8.828-8.828
			c4.873,0,8.828,3.946,8.828,8.828v105.931C300.138,420.78,296.183,424.725,291.31,424.725"/>
		<path style="fill:#C03A2B;" d="M361.931,424.725c-4.873,0-8.828-3.946-8.828-8.828V309.967c0-4.882,3.955-8.828,8.828-8.828
			s8.828,3.946,8.828,8.828v105.931C370.759,420.78,366.804,424.725,361.931,424.725"/>
		<path style="fill:#C03A2B;" d="M361.931,371.76H291.31c-4.873,0-8.828-3.946-8.828-8.828c0-4.882,3.955-8.828,8.828-8.828h70.621
			c4.873,0,8.828,3.946,8.828,8.828C370.759,367.814,366.804,371.76,361.931,371.76"/>
	</g>
</g>
</svg>